<?xml version="1.0" encoding="iso-8859-1"?>
<!-- Generator: Adobe Illustrator 19.0.0, SVG Export Plug-In . SVG Version: 6.00 Build 0)  -->
<svg version="1.1" id="Capa_1" xmlns="http://www.w3.org/2000/svg" xmlns:xlink="http://www.w3.org/1999/xlink" x="0px" y="0px"
	 viewBox="0 0 511.999 511.999" style="enable-background:new 0 0 511.999 511.999;" xml:space="preserve">
<path style="fill:#EA473B;" d="M504.499,477.472c0,14.927-12.101,27.027-27.027,27.027H34.528
	c-14.927,0-27.027-12.101-27.027-27.027V34.527C7.501,19.601,19.602,7.5,34.528,7.5h442.943c14.927,0,27.027,12.101,27.027,27.027
	v442.945H504.499z"/>
<g>
	<path style="fill:#F4F4F4;" d="M199.905,238.178c3.889-10.367,7.776-16.195,7.776-16.195c18.7,0,41.467-0.204,41.467-20.738
		c0-9.717-12.956-14.899-23.322-14.899c-24.62,0-38.876,3.884-52.482,31.744c-11.666,22.033-23.326,55.727-23.326,78.404
		c0,18.794,14.899,28.512,32.394,28.512c15.55,0,38.876-5.833,38.876-26.567c0-8.422-7.126-12.961-16.844-12.961
		c-9.071,0-14.255,1.301-21.382,2.595c1.944-8.423,4.532-16.2,5.827-20.088c18.145,3.238,33.049,1.943,38.232-14.901
		C231.009,240.123,221.286,235.583,199.905,238.178z"/>
	<path style="fill:#F4F4F4;" d="M143.534,188.284c-11.018,0-17.495,4.538-23.321,13.61c-12.312,18.789-37.584,77.105-36.934,102.377
		c0,14.254,11.013,20.082,23.321,20.082c17.494,0.65,36.934-3.889,38.878-25.267c0.649-7.777-4.533-14.905-25.917-11.667
		c9.072-20.083,36.282-71.271,36.282-88.121C156.493,193.474,153.899,188.284,143.534,188.284z"/>
	<path style="fill:#F4F4F4;" d="M315.242,237.528c12.312-1.294,19.439-9.066,21.383-23.321
		c2.589-19.439-13.605-27.217-34.344-27.217c-34.339,0-47.949,21.383-60.906,51.188c-5.832,14.256-13.609,38.232-13.609,53.782
		c0,21.382,12.961,33.044,34.343,33.044c31.1,0,52.482-24.622,58.961-55.077c1.95-9.717,4.539-27.211-19.433-26.566
		c-12.311,0.65-20.089,3.238-23.978,16.199c-3.889,12.311,11.017,12.962,11.017,12.962c-3.238,12.955-11.661,21.377-19.439,21.377
		c-4.538,0-9.072-1.939-7.127-12.306c1.944-14.256,15.55-49.894,22.027-58.966c2.595-3.889,6.483-7.778,12.317-7.778
		c7.771,0,6.477,3.89,5.183,8.428C296.454,237.528,311.353,237.528,315.242,237.528z"/>
	<path style="fill:#F4F4F4;" d="M396.234,187.639c-34.987-0.649-46.003,22.678-57.02,51.189
		c-6.477,15.549-13.605,39.52-13.605,56.37c0,23.972,17.494,29.806,33.044,29.806c14.905,0,32.4-3.238,47.305-29.806
		c8.422-15.55,16.844-36.933,20.732-55.076C429.928,224.574,437.056,187.639,396.234,187.639z M375.502,286.127
		c-6.707,11.721-16.85,8.72-16.85,1.294c-0.645-9.717,17.494-58.96,23.977-67.388c2.589-3.883,5.828-4.533,9.072-4.533
		c5.183,0,5.829,3.889,5.829,6.482C396.884,232.994,380.685,277.055,375.502,286.127z"/>
</g>
<g>
	<path style="fill:#EAE8E8;" d="M167.018,296.494c0-22.677,11.661-56.37,23.326-78.404c11.303-23.146,23.061-29.738,40.832-31.308
		c-1.808-0.288-3.615-0.436-5.351-0.436c-24.62,0-38.876,3.884-52.482,31.744c-11.666,22.033-23.326,55.727-23.326,78.404
		c0,21.129,18.438,31.18,41.691,27.845C177.759,321.859,167.018,312.45,167.018,296.494z"/>
	<path style="fill:#EAE8E8;" d="M100.278,304.272c-0.65-25.273,24.622-83.588,36.934-102.377c3.951-6.15,8.205-10.212,13.967-12.192
		c-1.867-0.896-4.365-1.418-7.646-1.418c-11.018,0-17.495,4.538-23.321,13.61C107.9,220.684,82.627,279,83.277,304.272
		c0,14.254,11.013,20.082,23.321,20.082c3.786,0.141,7.663,0.037,11.435-0.427C108.157,322.356,100.278,316.328,100.278,304.272z"/>
	<path style="fill:#EAE8E8;" d="M244.767,291.961c0-15.55,7.776-39.526,13.609-53.782c11.83-27.214,24.213-47.396,52.413-50.702
		c-2.719-0.324-5.565-0.486-8.508-0.486c-34.339,0-47.949,21.383-60.906,51.188c-5.832,14.256-13.609,38.232-13.609,53.782
		c0,25.427,18.674,36.167,43.01,32.378C254.411,321.601,244.767,310.4,244.767,291.961z"/>
	<path style="fill:#EAE8E8;" d="M342.61,295.2c0-16.851,7.127-40.821,13.605-56.37c9.951-25.751,19.905-47.268,47.515-50.715
		c-2.299-0.308-4.789-0.475-7.495-0.475c-34.987-0.649-46.003,22.678-57.02,51.189c-6.477,15.549-13.605,39.52-13.605,56.37
		c0,24.22,18.505,32.396,42.206,29.259C354.763,322.554,342.61,315.179,342.61,295.2z"/>
</g>
<path style="fill:#D82B27;" d="M27.034,477.472V34.527c0-14.926,12.1-27.027,27.027-27.027H34.528
	C19.602,7.5,7.501,19.601,7.501,34.527v442.945c0,14.927,12.101,27.027,27.027,27.027H54.06
	C39.133,504.5,27.034,492.399,27.034,477.472z"/>
<path d="M375.502,286.127c5.183-9.073,21.382-53.133,22.028-64.145c0-2.594-0.647-6.482-5.829-6.482
	c-3.243,0-6.482,0.65-9.072,4.533c-6.482,8.429-24.621,57.671-23.977,67.388C358.653,294.837,368.781,297.872,375.502,286.127z"/>
<path d="M170.099,198.006c-0.65-7.776-1.294-11.661-5.183-16.2c-5.183-5.182-13.605-7.126-22.027-7.126
	c-14.256,0-25.923,6.476-33.694,20.088c-11.666,18.138-39.526,79.693-38.877,108.855c0,19.439,12.961,33.044,35.639,33.693
	c18.138,0.65,32.394-4.533,41.467-13.606c18.611,21.708,60.287,16.652,77.106-1.3c19.386,22.366,65.001,22.113,90.714-10.367
	c6.478,18.146,23.972,25.923,42.767,25.923c41.465,0,59.611-28.511,74.516-73.222c17.822-47.576,11.864-90.064-38.234-90.064
	c-22.025,0-36.931,8.423-47.298,20.732c-9.856-16.419-25.294-21.378-45.356-21.378c-18.145,0-32.4,5.828-42.767,14.251
	c-5.832-8.423-18.144-14.251-33.693-14.251C205.088,174.034,183.061,176.624,170.099,198.006z M119.561,287.421
	c21.383-3.238,26.566,3.889,25.917,11.667c-1.944,21.377-21.384,25.917-38.878,25.267c-12.31,0-23.321-5.828-23.321-20.082
	c-0.65-25.273,24.622-83.588,36.934-102.377c5.826-9.072,12.305-13.61,23.321-13.61c10.366,0,12.961,5.188,12.311,11.016
	C155.843,216.151,128.633,267.338,119.561,287.421z M396.234,187.639c40.822,0,33.694,36.934,30.456,52.483
	c-3.889,18.144-12.312,39.526-20.733,55.076c-14.905,26.567-32.399,29.806-47.305,29.806c-15.55,0-33.044-5.833-33.044-29.806
	c0-16.851,7.127-40.821,13.605-56.37C350.231,210.318,361.247,186.99,396.234,187.639z M302.281,186.99
	c20.738,0,36.933,7.777,34.344,27.217c-1.944,14.256-9.072,22.027-21.383,23.321c-3.889,0-18.788,0-13.605-14.25
	c1.294-4.538,2.589-8.428-5.183-8.428c-5.833,0-9.723,3.89-12.317,7.778c-6.478,9.072-20.083,44.71-22.027,58.966
	c-1.944,10.367,2.589,12.306,7.127,12.306c7.777,0,16.2-8.423,19.439-21.377c0,0-14.905-0.65-11.017-12.962
	c3.889-12.961,11.667-15.549,23.978-16.199c23.972-0.645,21.383,16.85,19.433,26.566c-6.478,30.455-27.861,55.077-58.961,55.077
	c-21.382,0-34.343-11.662-34.343-33.044c0-15.55,7.776-39.526,13.609-53.782C254.331,208.373,267.942,186.99,302.281,186.99z
	 M249.148,201.244c0,14.256-12.311,19.439-23.971,20.089c-5.184,0.65-12.961,0.65-17.495,0.65c0,0-3.888,5.828-7.776,16.195
	c21.382-2.595,31.105,1.944,27.217,14.904c-5.184,16.845-20.088,18.14-38.232,14.901c-1.295,3.888-3.883,11.666-5.827,20.088
	c8.774-1.593,38.226-8.582,38.226,10.366c0,20.733-23.326,26.567-38.876,26.567c-17.494,0-32.394-9.718-32.394-28.512
	c0-22.677,11.661-56.37,23.326-78.404c13.606-27.86,27.861-31.744,52.482-31.744C236.192,186.345,249.148,191.529,249.148,201.244z"
	/>
<path d="M477.471,0h-203.97c-4.143,0-7.5,3.358-7.5,7.5c0,4.143,3.357,7.5,7.5,7.5h203.97c10.768,0,19.526,8.76,19.526,19.526
	v194.509c0,4.143,3.357,7.5,7.5,7.5c4.142,0,7.5-3.357,7.5-7.5V34.527C511.999,15.489,496.509,0,477.471,0z"/>
<path d="M504.499,256.538c-4.143,0-7.5,3.357-7.5,7.5v213.434c0,10.768-8.76,19.526-19.526,19.526H34.528
	c-10.768,0-19.526-8.76-19.526-19.526V34.527c0-10.767,8.76-19.526,19.526-19.526h203.97c4.143,0,7.5-3.357,7.5-7.5
	c0-4.142-3.357-7.5-7.5-7.5H34.528C15.49,0,0.001,15.489,0.001,34.527v442.945c0,19.038,15.489,34.527,34.527,34.527h442.943
	c19.038,0,34.527-15.489,34.527-34.527V264.038C511.999,259.896,508.641,256.538,504.499,256.538z"/>
<g>
</g>
<g>
</g>
<g>
</g>
<g>
</g>
<g>
</g>
<g>
</g>
<g>
</g>
<g>
</g>
<g>
</g>
<g>
</g>
<g>
</g>
<g>
</g>
<g>
</g>
<g>
</g>
<g>
</g>
</svg>
